<svg width="400" height="400" viewBox="0 0 400 400" xmlns="http://www.w3.org/2000/svg">
  <!-- 圓餅圖 -->
  <g transform="translate(200, 200)">
    <!-- A 銀行 - 活存 43.6% (157度) -->
    <path d="M 0 0 L 180 0 A 180 180 0 0 1 -138.59 115.47 Z" 
          fill="#5D8AA8" />
    
    <!-- 以太坊 - 錢包1 32.4% (117度) -->
    <path d="M 0 0 L -138.59 115.47 A 180 180 0 0 1 -138.59 -115.47 Z" 
          fill="#333333" />
    
    <!-- A 券商 - 證券現值 20.7% (74度) -->
    <path d="M 0 0 L -138.59 -115.47 A 180 180 0 0 1 115.47 -138.59 Z" 
          fill="#7FA8C9" />
    
    <!-- 以太坊 - 錢包2 3.3% (12度) -->
    <path d="M 0 0 L 115.47 -138.59 A 180 180 0 0 1 180 0 Z" 
          fill="#D2B48C" />
  </g>

  <!-- 圖例 -->
  <g transform="translate(20, 350)">
    <rect x="0" y="0" width="15" height="15" fill="#5D8AA8"/>
    <text x="25" y="12" font-family="system-ui" font-size="12">A 銀行 - 活存 (43.6%)</text>
    
    <rect x="0" y="25" width="15" height="15" fill="#333333"/>
    <text x="25" y="37" font-family="system-ui" font-size="12">以太坊 - 錢包1 (32.4%)</text>
    
    <rect x="200" y="0" width="15" height="15" fill="#7FA8C9"/>
    <text x="225" y="12" font-family="system-ui" font-size="12">A 券商 - 證券現值 (20.7%)</text>
    
    <rect x="200" y="25" width="15" height="15" fill="#D2B48C"/>
    <text x="225" y="37" font-family="system-ui" font-size="12">以太坊 - 錢包2 (3.3%)</text>
  </g>
</svg> 